# xmcd
#
# Track frame offsets:
#	150
#	17303
#	32685
#	56240
#	76220
#	90505
#	110612
#	130677
#	151219
#	165847
#	185707
#	207240
#	225193
#	246111
#	263573
#	293236
#
# Disc length: 3922 seconds
#
# Revision: 1
# Processed by: cddbd v1.5.1PL0 Copyright (c) Steve Scherf et al.
# Submitted via: audiograbber 1.83.01
#
DISCID=bf0f5010
DTITLE=Tim McGraw - SC8873
DYEAR=2004
DGENRE=country
TTITLE0=my next thirty years
TTITLE1=i like it, i love it
TTITLE2=my best friend
TTITLE3=red ragtop
TTITLE4=indian outlaw
TTITLE5=real good man
TTITLE6=th cowboy in me
TTITLE7=she's my kind of rain
TTITLE8=something like that
TTITLE9=don't take the girl
TTITLE10=one of these days
TTITLE11=it's your love
TTITLE12=angry all the time
TTITLE13=just to see you smile
TTITLE14=grown men don't cry
TTITLE15=Data Track
EXTD=
EXTT0=
EXTT1=
EXTT2=
EXTT3=
EXTT4=
EXTT5=
EXTT6=
EXTT7=
EXTT8=
EXTT9=
EXTT10=
EXTT11=
EXTT12=
EXTT13=
EXTT14=
EXTT15=
PLAYORDER=
